<svg width="25" height="25" viewBox="0 0 25 25" fill="none" xmlns="http://www.w3.org/2000/svg">
<path d="M16.137 1.76669L16.4242 4.56903H8.3765L8.66373 1.76669H5.91688L4.54801 10.2062H9.25229C9.53324 9.15658 10.8579 8.38379 12.4998 8.38379C14.1417 8.38379 15.4664 9.15658 15.7473 10.2062H20.2415L18.738 1.76669H16.137Z" fill="#613CEA"/>
<path d="M12.4998 12.8618C10.858 12.8618 9.53325 12.089 9.2523 11.0394H4.41291L2.48552 22.9206H6.88725L7.30407 18.8565H17.6959L18.1128 22.9206H22.5065L20.3898 11.0398H15.7473C15.4663 12.089 14.1421 12.8618 12.4998 12.8618Z" fill="#613CEA"/>
<path d="M15.3029 1.80426H9.49821L9.30018 3.73541H15.5009L15.3029 1.80426Z" fill="#613CEA"/>
<path d="M8.05687 19.6902L7.7255 22.9206H17.2745L16.9432 19.6902H8.05687Z" fill="#613CEA"/>
<path d="M12.4998 12.0281C13.5852 12.0281 14.5339 11.6055 14.8549 11.0394H10.1448C10.4657 11.6055 11.4143 12.0281 12.4998 12.0281Z" fill="#613CEA"/>
<path d="M12.4998 9.2175C11.4144 9.2175 10.4657 9.64014 10.1447 10.2062H14.8548C14.5339 9.64014 13.5856 9.2175 12.4998 9.2175Z" fill="#613CEA"/>
<path d="M4.24454 0.0993958L0 24.9006H25L20.3386 0.0993958H4.24454ZM18.1982 23.7543H6.8018H1.50597L5.20785 0.933038H19.4362L23.5015 23.7543H18.1982Z" fill="#613CEA"/>
</svg>
