<svg width="50" height="50" viewBox="0 0 50 50" fill="none" xmlns="http://www.w3.org/2000/svg">
<path d="M32.274 3.53336L32.8485 9.13803H16.753L17.3275 3.53336H11.8338L9.09604 20.4124H18.5046C19.0665 18.3132 21.7158 16.7676 24.9996 16.7676C28.2834 16.7676 30.9327 18.3132 31.4946 20.4124H40.4831L37.476 3.53336H32.274Z" fill="#CDD2DA"/>
<path d="M24.9996 25.7235C21.7159 25.7235 19.0665 24.1779 18.5046 22.0787H8.82583L4.97105 45.8411H13.7745L14.6081 37.713H35.3919L36.2255 45.8411H45.013L40.7797 22.0795H31.4945C30.9326 24.1779 28.2842 25.7235 24.9996 25.7235Z" fill="#CDD2DA"/>
<path d="M30.6058 3.60846H18.9964L18.6004 7.47074H31.0019L30.6058 3.60846Z" fill="#CDD2DA"/>
<path d="M16.1137 39.3804L15.451 45.8413H34.549L33.8863 39.3804H16.1137Z" fill="#CDD2DA"/>
<path d="M24.9996 24.0562C27.1704 24.0562 29.0679 23.211 29.7098 22.0789H20.2896C20.9313 23.211 22.8287 24.0562 24.9996 24.0562Z" fill="#CDD2DA"/>
<path d="M24.9996 18.435C22.8288 18.435 20.9313 19.2803 20.2894 20.4123H29.7097C29.0678 19.2803 27.1712 18.435 24.9996 18.435Z" fill="#CDD2DA"/>
<path d="M8.48908 0.198792L0 49.8012H50L40.6773 0.198792H8.48908ZM36.3964 47.5086H13.6036H3.01193L10.4157 1.86608H38.8724L47.0029 47.5086H36.3964Z" fill="#CDD2DA"/>
</svg>
